<?xml version="1.0" encoding="utf-8"?>
<!-- Generator: Adobe Illustrator 16.0.4, SVG Export Plug-In . SVG Version: 6.00 Build 0)  -->
<!DOCTYPE svg PUBLIC "-//W3C//DTD SVG 1.1//EN" "http://www.w3.org/Graphics/SVG/1.1/DTD/svg11.dtd">
<svg version="1.1" id="Layer_1" xmlns="http://www.w3.org/2000/svg" xmlns:xlink="http://www.w3.org/1999/xlink" x="0px" y="0px"
	 width="36.459px" height="36.355px" viewBox="0 0 36.459 36.355" enable-background="new 0 0 36.459 36.355" xml:space="preserve">
<path fill="#FFFFFF" d="M35.979,35.922c-0.902,0-1.805,0-2.704,0c0.061-0.026,0.117-0.06,0.184-0.076
	c1.28-0.368,2.103-1.187,2.446-2.479c0.016-0.052,0.048-0.098,0.074-0.148"/>
<path d="M35.69,17.896c-0.613-1.236-1.594-1.911-2.991-1.936c-0.368-0.006-0.739-0.002-1.146-0.002c0,1.479,0,2.936,0,4.417
	c-0.746,0-1.454,0-2.21,0c0-0.153,0-0.304,0-0.45c0-4.146-0.004-8.296,0.004-12.442c0-0.303-0.092-0.511-0.306-0.721
	c-2.022-2.007-4.04-4.03-6.057-6.05c-0.09-0.087-0.164-0.188-0.247-0.282c-5.203,0-10.399,0-15.601,0
	C7.131,0.579,7.121,0.73,7.121,0.879c0,6.341,0,12.68,0,19.022c0,0.146,0,0.297,0,0.47c-0.736,0-1.445,0-2.19,0
	c0-1.449,0-2.912,0-4.366c-1.722-0.181-3.006,0.04-3.981,1.56c-0.318,0.491-0.468,1.044-0.465,1.639
	c0.004,4.457,0.023,8.916-0.009,13.374c-0.009,1.215,0.768,2.796,2.499,3.261c0.075,0.021,0.144,0.058,0.216,0.086
	c10.03,0,20.059,0,30.089,0c0.062-0.026,0.118-0.06,0.184-0.076c1.28-0.367,2.104-1.185,2.448-2.478
	c0.014-0.053,0.046-0.098,0.072-0.148c0-4.854,0-9.705,0-14.558C35.883,18.403,35.813,18.135,35.69,17.896z M9.37,2.661
	c3.682,0,7.35,0,11.049,0c0,2.202,0,4.397,0,6.618c2.231,0,4.429,0,6.657,0c0,3.711,0,7.388,0,11.09c-5.887,0-11.783,0-17.708,0
	C9.37,14.458,9.37,8.572,9.37,2.661z M2.727,24.807c0-0.712,0-1.433,0-2.175c1.442,0,2.89,0,4.377,0c0,0.728,0,1.439,0,2.175
	C5.644,24.807,4.199,24.807,2.727,24.807z M31.515,31.461c-8.847,0-17.7,0-26.58,0c0-0.735,0-1.446,0-2.178
	c8.862,0,17.708,0,26.58,0C31.515,29.998,31.515,30.718,31.515,31.461z"/>
<rect x="-56.896" y="1.75" width="36" height="35.898"/>
</svg>
