<svg xmlns="http://www.w3.org/2000/svg" width="36.459" height="36.355" viewBox="0 0 36.459 36.355"><path fill="#fff" d="M35.98 35.922h-2.705c.06-.026.117-.06.184-.076 1.28-.368 2.102-1.187 2.445-2.48.016-.05.048-.097.074-.147"/><path d="M35.69 17.896c-.613-1.236-1.594-1.91-2.99-1.936-.37-.006-.74-.002-1.147-.002v4.417h-2.21v-.45c0-4.146-.004-8.296.004-12.442 0-.303-.092-.51-.306-.72-2.02-2.008-4.04-4.03-6.056-6.05-.09-.088-.164-.19-.247-.283h-15.6c-.006.15-.016.3-.016.45v19.49H4.93v-4.365c-1.72-.18-3.005.04-3.98 1.56-.318.49-.468 1.044-.465 1.64.004 4.456.023 8.915-.01 13.373-.008 1.215.77 2.796 2.5 3.26.075.022.144.06.216.087h30.09c.062-.026.118-.06.184-.076 1.28-.368 2.104-1.186 2.448-2.48.014-.052.046-.097.072-.147V18.665c-.1-.262-.17-.53-.294-.77zM9.37 2.66h11.05v6.62h6.656v11.09H9.368c.002-5.912.002-11.798.002-17.71zM2.727 24.808v-2.175h4.377v2.175H2.727zm28.788 6.654H4.935v-2.177h26.58v2.178zM-56.896 1.75h36v35.898h-36z"/></svg>