<?xml version="1.0" encoding="utf-8"?>
<!-- Generator: Adobe Illustrator 16.0.4, SVG Export Plug-In . SVG Version: 6.00 Build 0)  -->
<!DOCTYPE svg PUBLIC "-//W3C//DTD SVG 1.1//EN" "http://www.w3.org/Graphics/SVG/1.1/DTD/svg11.dtd">
<svg version="1.1" id="Layer_1" xmlns="http://www.w3.org/2000/svg" xmlns:xlink="http://www.w3.org/1999/xlink" x="0px" y="0px"
	 width="250.936px" height="158.083px" viewBox="0 0 250.936 158.083" enable-background="new 0 0 250.936 158.083"
	 xml:space="preserve">
<g id="Layer_1_1_" opacity="0.3">
	<g>
		<g>
			<polygon points="45.625,39.51 45.625,65.863 22.821,52.685 22.821,158.083 0,144.909 0,13.174 			"/>
		</g>
		<g>
			<polygon points="114.069,79.042 114.069,105.394 68.445,79.042 68.445,52.685 			"/>
		</g>
		<g>
			<polygon fill="#ED1C24" points="182.478,39.51 114.069,79.042 68.445,52.685 91.249,39.527 91.269,39.527 114.069,52.685 
				159.659,26.37 159.694,26.37 			"/>
		</g>
		<g>
			<polygon points="205.301,26.354 205.301,158.083 182.478,144.909 182.478,13.174 			"/>
		</g>
		<g>
			<polygon fill="#ED1C24" points="228.12,13.174 205.301,26.354 182.478,13.174 205.301,0 			"/>
		</g>
		<g>
			<polygon fill="#ED1C24" points="228.12,92.209 250.935,105.385 228.12,118.567 			"/>
		</g>
	</g>
</g>
<g id="guide" display="none">
	<polygon display="inline" fill="none" stroke="#000000" stroke-width="0.25" stroke-miterlimit="10" points="-37.59,-7.959 
		113.964,-95.458 265.518,-7.959 265.518,167.04 113.964,254.54 -37.59,167.04 	"/>
	<g display="inline">
		<path d="M113.964-94.958l151.698,262.75H-37.734L113.964-94.958 M113.964-95.458l-152.131,263.5h304.263L113.964-95.458
			L113.964-95.458z"/>
	</g>
</g>
</svg>
